<svg width="60" height="60" viewBox="0 0 60 60" fill="none" xmlns="http://www.w3.org/2000/svg">
<g clip-path="url(#clip0)">
<path d="M26.3805 12.749L20.8122 11.2362C20.2036 11.0708 19.5209 11.2078 19.0304 11.5936C18.6575 11.8868 18.4253 12.3022 18.3747 12.7558L17.7579 15.09C17.5761 15.517 17.5746 16.0042 17.7586 16.4545C17.8191 16.6028 17.8983 16.7432 17.9926 16.8732C17.4032 18.1175 16.7312 19.6521 16.0258 21.3594C16.025 21.3614 16.0242 21.3633 16.0234 21.3651C15.4072 22.8567 14.7659 24.479 14.1325 26.1542C11.9733 26.7481 9.21975 29.3105 8.41865 32.341L3.1183 52.3975C2.60824 54.328 3.8608 56.3514 5.91041 56.9082L11.3366 58.3824C11.3366 58.3824 11.3369 58.3824 11.3369 58.3825L16.7628 59.8566C17.1158 59.9525 17.4744 60 17.8295 60C18.448 60 19.0562 59.8559 19.6063 59.5725C20.5138 59.105 21.1528 58.3212 21.4053 57.3657L22.1344 54.6067C22.1345 54.6064 22.1347 54.6059 22.1347 54.6056C22.1349 54.6052 22.1349 54.6049 22.135 54.6045L26.7058 37.3092C27.5067 34.2787 26.3856 30.6638 24.8086 29.0547C25.2059 26.5182 25.5362 24.0666 25.7696 21.9494C25.7702 21.9433 25.7711 21.9372 25.7716 21.931C25.8884 20.8701 25.9805 19.8943 26.0446 19.0336C26.545 18.785 26.9419 18.3286 27.0972 17.7414L27.7713 15.191C28.0516 14.129 27.4277 13.0335 26.3805 12.749ZM19.1724 56.7588C19.0918 57.0633 18.8741 57.3206 18.559 57.4829C18.2024 57.6665 17.777 57.7055 17.361 57.5925L11.9351 56.1186C11.935 56.1186 11.935 56.1185 11.9349 56.1185L6.50866 54.6442C5.7041 54.4257 5.17404 53.6745 5.35111 53.004L5.78142 51.3757L19.6027 55.1306L19.1724 56.7588ZM20.2011 52.8667L6.37967 49.1118L10.3526 34.0795L24.1738 37.8344L20.2011 52.8667ZM24.6507 35.5375L11.0719 31.8484C12.0742 29.8426 14.1079 28.3911 15.0066 28.3681C15.476 28.3562 15.8917 28.0573 16.0583 27.6121C16.6589 26.0062 17.2694 24.4422 17.8603 22.9898H23.3222C23.1317 24.5633 22.8949 26.2835 22.6227 28.0604L22.3401 27.9836C21.7233 27.816 21.0898 28.1871 20.9246 28.8123C20.7594 29.4374 21.1252 30.08 21.7419 30.2474L23.0686 30.6079C23.8217 31.2181 24.7665 33.3966 24.6507 35.5375ZM24.9347 16.8684C24.9256 16.8686 24.9166 16.8696 24.9074 16.87C24.8989 16.8702 24.8906 16.8708 24.8821 16.8714C24.854 16.8731 24.8262 16.8758 24.7985 16.8796C24.789 16.8809 24.7795 16.882 24.77 16.8836C24.7424 16.888 24.7151 16.8936 24.6879 16.9001C24.6801 16.902 24.672 16.9034 24.6641 16.9055C24.631 16.9141 24.5982 16.9241 24.5661 16.9357C24.5557 16.9395 24.5457 16.944 24.5353 16.948C24.5136 16.9566 24.4921 16.9653 24.4711 16.9751C24.458 16.9812 24.4453 16.9877 24.4326 16.9943C24.4145 17.0036 24.3967 17.0132 24.379 17.0234C24.3666 17.0305 24.3543 17.0379 24.3421 17.0455C24.3237 17.057 24.3059 17.0693 24.2883 17.0818C24.2781 17.0891 24.2678 17.096 24.2579 17.1036C24.2344 17.1214 24.2117 17.1402 24.1897 17.1598C24.1862 17.1628 24.1825 17.1655 24.1791 17.1687C24.1531 17.1923 24.1284 17.2173 24.1045 17.2432C24.0995 17.2486 24.095 17.2543 24.0901 17.2598C24.072 17.2803 24.0544 17.3014 24.0377 17.3234C24.0309 17.3323 24.0244 17.3415 24.0178 17.3507C24.004 17.3696 23.9909 17.3891 23.9783 17.409C23.9712 17.4202 23.9643 17.4315 23.9576 17.4429C23.9467 17.4614 23.9365 17.4805 23.9266 17.4997C23.9199 17.5127 23.9132 17.5256 23.907 17.5389C23.8983 17.5576 23.8904 17.5768 23.8827 17.5961C23.8769 17.6102 23.8707 17.6242 23.8656 17.6386C23.8554 17.6669 23.8465 17.696 23.8384 17.7255C23.8288 17.7606 23.8211 17.7963 23.8146 17.8325C23.8132 17.8401 23.8111 17.8478 23.8099 17.8554C23.8091 17.8603 23.8089 17.8656 23.8081 17.8707C23.803 17.9061 23.799 17.9415 23.797 17.9768C23.755 18.744 23.6819 19.6453 23.5822 20.6462H18.8382C19.4358 19.2539 19.9921 18.0342 20.4714 17.0728C20.4865 17.0423 20.5001 17.0107 20.5127 16.9786C20.5149 16.9728 20.5179 16.9672 20.5201 16.9615C20.5224 16.9552 20.524 16.9485 20.5263 16.9421C20.539 16.9065 20.5501 16.8707 20.5594 16.8345C20.5669 16.8048 20.5736 16.775 20.5787 16.7454C20.5812 16.7309 20.5826 16.7163 20.5846 16.7018C20.5874 16.6802 20.5903 16.6588 20.592 16.6373C20.5931 16.6236 20.5936 16.6099 20.5941 16.5962C20.5952 16.5732 20.5958 16.5504 20.5954 16.5277C20.5952 16.5155 20.595 16.5033 20.5944 16.4912C20.5933 16.4659 20.5913 16.4408 20.5886 16.4159C20.5876 16.4061 20.5866 16.3964 20.5854 16.3867C20.5814 16.3568 20.5762 16.3271 20.57 16.2977C20.569 16.2928 20.5683 16.288 20.5672 16.2831C20.5592 16.2477 20.5498 16.2128 20.5387 16.1784C20.538 16.1763 20.5372 16.1743 20.5365 16.1723C20.5264 16.1419 20.515 16.1118 20.5025 16.0823C20.4979 16.0716 20.4928 16.061 20.4879 16.0504C20.4786 16.0298 20.4689 16.0096 20.4582 15.9897C20.4516 15.9771 20.4447 15.9648 20.4376 15.9525C20.4275 15.9348 20.4167 15.9175 20.4056 15.9002C20.3977 15.8878 20.3897 15.8754 20.3812 15.8632C20.3685 15.845 20.3549 15.8276 20.3411 15.8101C20.3335 15.8004 20.3263 15.7903 20.3183 15.7808C20.2965 15.755 20.2735 15.7302 20.2496 15.7064C20.2423 15.6991 20.2346 15.6926 20.2271 15.6856C20.2083 15.6679 20.1891 15.6506 20.1692 15.6341C20.1606 15.6271 20.1517 15.6203 20.1429 15.6135C20.122 15.5972 20.1005 15.5817 20.0783 15.5668C20.0703 15.5616 20.0625 15.5562 20.0543 15.551C20.047 15.5463 20.0399 15.5411 20.0325 15.5366L20.5473 13.5906L25.449 14.9222L24.9347 16.8684Z" fill="#2546F0"/>
<path d="M19.0475 27.0895L19.0204 27.0822C18.4038 26.9156 17.7703 27.2872 17.6058 27.9125C17.4412 28.5379 17.8078 29.18 18.4247 29.3468L18.4517 29.3541C18.5515 29.3811 18.6517 29.394 18.7503 29.394C19.261 29.394 19.7285 29.0479 19.8664 28.5238C20.0308 27.8983 19.6642 27.2563 19.0475 27.0895Z" fill="#2546F0"/>
<path d="M19.0508 41.264C18.4687 40.2418 17.5289 39.5108 16.4044 39.2053C16.0348 39.1049 15.6546 39.0539 15.2746 39.0539C13.307 39.0539 11.5768 40.401 11.0673 42.3296C10.766 43.4696 10.9205 44.6604 11.5026 45.6825C12.0847 46.7046 13.0245 47.4357 14.1489 47.7411C14.5185 47.8415 14.8986 47.8924 15.2787 47.8924C17.2462 47.8924 18.9765 46.5454 19.4861 44.6166C19.7875 43.4768 19.6329 42.286 19.0508 41.264ZM17.2534 44.0102C17.014 44.9161 16.202 45.5486 15.2788 45.5486C15.1007 45.5486 14.9219 45.5246 14.7471 45.4771C14.2191 45.3337 13.7778 44.9903 13.5046 44.5105C13.2312 44.0305 13.1587 43.4715 13.3002 42.9361C13.5395 42.0302 14.3515 41.3975 15.2747 41.3975C15.4528 41.3975 15.6316 41.4215 15.8064 41.469C16.3344 41.6124 16.7757 41.9558 17.049 42.4358C17.3221 42.9158 17.3947 43.4749 17.2534 44.0102Z" fill="#2546F0"/>
<path d="M56.0584 52.3975L50.758 32.341C49.957 29.3103 47.2035 26.7479 45.0442 26.1542C44.4108 24.4791 43.7695 22.8566 43.1534 21.3652C43.1526 21.3632 43.1518 21.3613 43.1509 21.3593C42.4455 19.652 41.7736 18.1174 41.184 16.8733C41.2782 16.7433 41.3573 16.6028 41.4179 16.4547C41.602 16.0043 41.6004 15.5171 41.4187 15.09L40.8017 12.7558C40.7512 12.3024 40.5191 11.887 40.1462 11.5937C39.6557 11.2079 38.973 11.0709 38.3642 11.2363L32.7959 12.749C32.2894 12.8867 31.8657 13.2168 31.6028 13.6785C31.3399 14.1403 31.2697 14.6775 31.4055 15.191L32.0794 17.7415C32.2347 18.3287 32.6316 18.7852 33.1321 19.0336C33.1961 19.8939 33.2881 20.8691 33.4047 21.9294C33.4054 21.9369 33.4065 21.9444 33.4073 21.9519C33.6405 24.0684 33.9707 26.5189 34.3679 29.0546C32.7909 30.6636 31.6699 34.2787 32.4707 37.3092L37.7712 57.3655C38.0238 58.3211 38.6628 59.1049 39.5703 59.5724C40.1204 59.8558 40.7286 59.9999 41.3471 59.9999C41.7021 59.9999 42.0608 59.9524 42.4136 59.8564L53.2662 56.9081C54.2338 56.6453 55.0586 56.046 55.5886 55.2207C56.1442 54.3557 56.311 53.3531 56.0584 52.3975ZM34.4165 16.8847C34.3993 16.8819 34.3819 16.8796 34.3644 16.8775C34.3445 16.875 34.3247 16.8731 34.3045 16.8717C34.2909 16.8708 34.2773 16.8699 34.2634 16.8694C34.2561 16.8692 34.2491 16.8683 34.2419 16.8682L33.7277 14.922L38.6294 13.5907L39.1438 15.5367C39.1364 15.5413 39.1294 15.5465 39.1221 15.5512C39.1139 15.5564 39.1058 15.5618 39.0977 15.5672C39.0758 15.582 39.0544 15.5974 39.0336 15.6135C39.0247 15.6205 39.0157 15.6273 39.0069 15.6345C38.9872 15.6508 38.9683 15.6678 38.9498 15.6852C38.9421 15.6925 38.9341 15.6994 38.9265 15.7068C38.9028 15.7305 38.88 15.7552 38.8584 15.7807C38.8499 15.7907 38.8423 15.8013 38.8342 15.8117C38.8209 15.8285 38.8077 15.8455 38.7954 15.863C38.7866 15.8754 38.7785 15.8882 38.7702 15.9011C38.7593 15.9178 38.7488 15.9347 38.7388 15.9521C38.7316 15.9646 38.7245 15.9774 38.7177 15.9903C38.7073 16.0098 38.6978 16.0296 38.6886 16.0497C38.6835 16.0607 38.6782 16.0716 38.6735 16.0827C38.6614 16.1115 38.6503 16.141 38.6404 16.1707C38.6394 16.1734 38.6383 16.1761 38.6375 16.1788C38.6264 16.213 38.617 16.2478 38.609 16.283C38.6079 16.2884 38.6071 16.2938 38.606 16.2992C38.5999 16.328 38.5947 16.3572 38.5908 16.3866C38.5895 16.3965 38.5887 16.4066 38.5875 16.4166C38.5849 16.4413 38.5829 16.4662 38.5818 16.4912C38.5812 16.5034 38.5808 16.5157 38.5806 16.528C38.5804 16.5506 38.581 16.5733 38.582 16.5961C38.5826 16.6101 38.5831 16.6238 38.5841 16.6377C38.5858 16.6592 38.5887 16.6805 38.5916 16.7019C38.5936 16.7165 38.5949 16.7311 38.5976 16.7455C38.603 16.7767 38.6097 16.8078 38.6178 16.8388C38.6261 16.8714 38.6365 16.9037 38.6479 16.9358C38.6509 16.9444 38.6532 16.9534 38.6563 16.962C38.6577 16.9656 38.6595 16.9691 38.6609 16.9726C38.6743 17.0073 38.689 17.0412 38.7054 17.0739C39.1848 18.0352 39.7408 19.2544 40.3383 20.6463H35.5944C35.4947 19.6453 35.4215 18.744 35.3796 17.9769C35.3776 17.9414 35.3736 17.9057 35.3684 17.8699C35.3677 17.8651 35.3674 17.8603 35.3667 17.8556C35.3655 17.8479 35.3634 17.8402 35.3619 17.8324C35.3558 17.798 35.3487 17.7638 35.3397 17.7304C35.3313 17.699 35.3217 17.6683 35.3108 17.6381C35.3061 17.6248 35.3003 17.6119 35.295 17.5986C35.2868 17.5781 35.2783 17.5576 35.2691 17.5378C35.2633 17.5255 35.2569 17.5135 35.2507 17.5013C35.2403 17.481 35.2295 17.461 35.2182 17.4414C35.2119 17.4306 35.2054 17.4201 35.1988 17.4095C35.1859 17.389 35.1722 17.369 35.158 17.3494C35.1515 17.3405 35.1454 17.3315 35.1387 17.3228C35.1223 17.3013 35.1051 17.2807 35.0874 17.2606C35.0818 17.2544 35.0767 17.2479 35.0712 17.2418C35.048 17.2166 35.0238 17.1924 34.9986 17.1694C34.9899 17.1614 34.9806 17.1543 34.9717 17.1465C34.9553 17.1325 34.939 17.1185 34.9218 17.1055C34.9074 17.0944 34.8924 17.0842 34.8775 17.0738C34.8653 17.0654 34.8533 17.0571 34.841 17.0493C34.8236 17.0381 34.8058 17.0275 34.7878 17.0173C34.7779 17.0117 34.7678 17.0064 34.7577 17.001C34.7375 16.9903 34.7172 16.9799 34.6964 16.9704C34.69 16.9676 34.6837 16.9651 34.6773 16.9623C34.6074 16.9321 34.5342 16.9089 34.4583 16.8932C34.4445 16.8903 34.4306 16.8872 34.4165 16.8847ZM36.1084 30.6079L37.4351 30.2476C38.0517 30.0801 38.4176 29.4375 38.2524 28.8124C38.0871 28.1873 37.4531 27.8161 36.8368 27.9838L36.5542 28.0605C36.2822 26.2835 36.0453 24.5632 35.8547 22.99H41.3168C41.9076 24.4424 42.5182 26.0064 43.1188 27.6123C43.2854 28.0574 43.701 28.3562 44.1705 28.3681C45.069 28.3911 47.1027 29.8426 48.1049 31.8486L34.5261 35.5376C34.4103 33.3965 35.3553 31.218 36.1084 30.6079ZM38.9757 52.8669L35.0029 37.8344L48.8242 34.0795L52.7969 49.112L38.9757 52.8669ZM53.6515 53.942C53.4332 54.2818 53.084 54.5313 52.6682 54.6443L41.8156 57.5926C41.3996 57.7056 40.9744 57.6667 40.6177 57.4829C40.3027 57.3206 40.0849 57.0635 40.0043 56.7588L39.574 55.1306L53.3953 51.3757L53.8256 53.004C53.906 53.3087 53.8443 53.6419 53.6515 53.942Z" fill="#2546F0"/>
<path d="M41.5706 27.9114C41.4054 27.2863 40.772 26.9149 40.1552 27.0825L40.1283 27.0899C39.5116 27.2574 39.1457 27.8999 39.3109 28.525C39.4491 29.0487 39.916 29.394 40.4266 29.394C40.5254 29.394 40.6262 29.381 40.7263 29.3538L40.7532 29.3465C41.3698 29.179 41.7358 28.5365 41.5706 27.9114Z" fill="#2546F0"/>
<path d="M48.1094 42.3296C47.5998 40.4008 45.8695 39.0537 43.902 39.0537C43.522 39.0537 43.1418 39.1047 42.7722 39.2051C41.6477 39.5105 40.708 40.2416 40.1258 41.2639C39.5439 42.286 39.3892 43.4767 39.6904 44.6168C40.2001 46.5452 41.9304 47.8923 43.8978 47.8924C43.8979 47.8924 43.898 47.8924 43.8981 47.8924C44.278 47.8924 44.6581 47.8415 45.0278 47.7411C46.1521 47.4358 47.0919 46.7046 47.674 45.6825C48.2561 44.6603 48.4107 43.4696 48.1094 42.3296ZM45.6722 44.5105C45.3989 44.9905 44.9576 45.3338 44.4297 45.4772C44.2551 45.5247 44.0762 45.5487 43.8982 45.5487C43.8982 45.5487 43.8982 45.5487 43.8981 45.5487C42.9749 45.5487 42.1627 44.916 41.9234 44.0103C41.7819 43.4749 41.8545 42.9158 42.1277 42.4358C42.401 41.9558 42.8423 41.6126 43.3703 41.4691C43.545 41.4216 43.7239 41.3976 43.902 41.3976C44.8251 41.3976 45.6372 42.0303 45.8766 42.9362C46.0181 43.4714 45.9455 44.0305 45.6722 44.5105Z" fill="#2546F0"/>
<path d="M29.5884 0C28.95 0 28.4326 0.524646 28.4326 1.17187V4.30826C28.4326 4.95549 28.95 5.48013 29.5884 5.48013C30.2266 5.48013 30.7442 4.95549 30.7442 4.30826V1.17187C30.7442 0.524646 30.2268 0 29.5884 0Z" fill="#2546F0"/>
<path d="M25.7229 5.88195L24.1514 3.16579C23.8285 2.60751 23.1202 2.42036 22.5697 2.7479C22.019 3.07532 21.8346 3.79333 22.1575 4.35161L23.729 7.06777C23.9442 7.43972 24.3303 7.64691 24.727 7.64691C24.9257 7.64691 25.127 7.595 25.3107 7.48566C25.8613 7.15812 26.0458 6.44012 25.7229 5.88195Z" fill="#2546F0"/>
<path d="M36.6073 2.74794C36.0565 2.4204 35.3484 2.60766 35.0254 3.16583L33.454 5.88199C33.131 6.44027 33.3155 7.15827 33.8661 7.48569C34.0499 7.59503 34.2511 7.64694 34.4498 7.64694C34.8465 7.64694 35.2327 7.43976 35.448 7.0678L37.0194 4.35164C37.3424 3.79336 37.1578 3.07536 36.6073 2.74794Z" fill="#2546F0"/>
</g>
<defs>
<clipPath id="clip0">
<rect width="59.1781" height="60" fill="white"/>
</clipPath>
</defs>
</svg>
