<svg width="228" height="48" viewBox="0 0 228 48" fill="none" xmlns="http://www.w3.org/2000/svg">
<path d="M21.4489 34.9771V34.3036H14.4471C11.9014 34.3036 10.3102 35.5889 10.3102 37.4833C10.3102 39.4396 12.0931 40.663 14.7662 40.663C18.2664 40.663 21.4489 38.4016 21.4489 34.9771ZM31.251 27.6402V47.9652H21.4489V44.8216C19.2209 46.6568 16.1657 48 11.9014 48C4.77371 48 0 44.0269 0 37.9727C0 31.9816 4.77371 28.0677 13.3023 28.0677H21.4489V27.456C21.4489 24.5647 18.812 22.3689 15.3882 22.4166C12.3344 22.4591 9.74046 23.8397 9.16536 26.5519L1.97329 25.1327C3.37283 19.2021 8.97366 15.4711 16.6121 15.4711C25.5858 15.4711 31.251 19.8125 31.251 27.6402Z" fill="white"/>
<path d="M71.2886 31.7355C71.2886 27.0271 67.5967 23.7856 63.4611 23.7856C59.0037 23.7856 55.7583 27.0271 55.7583 31.7355C55.7583 36.5032 59.0037 39.683 63.4611 39.683C67.5967 39.683 71.2886 36.5032 71.2886 31.7355ZM81.4714 47.9639H71.2886V44.6361C68.8072 46.7765 65.4974 47.9987 61.3591 47.9987C52.8948 47.9987 45.7658 41.4576 45.7658 31.7355C45.7658 22.074 52.8948 15.4698 61.3591 15.4698C65.4974 15.4698 68.8072 16.6933 71.2886 18.8337V0H81.4714V47.9639Z" fill="white"/>
<path d="M109.868 16.2064L109.423 25.989H107.577C100.448 25.989 96.5668 29.5371 96.5668 37.4845V47.9664H86.3827V16.3906H96.5668V22.2607C98.8579 18.5915 102.358 15.9617 107.577 15.9617C108.468 15.9617 109.104 16.0235 109.868 16.2064Z" fill="white"/>
<path d="M122.397 9.20878C122.397 11.8888 120.264 13.885 117.311 13.885C114.356 13.885 112.278 11.8888 112.278 9.20878C112.278 6.63434 114.356 4.42694 117.311 4.42694C120.264 4.42694 122.397 6.63434 122.397 9.20878Z" fill="white"/>
<path d="M44.7444 43.3232C44.7444 46.0032 42.6116 47.9994 39.6584 47.9994C36.7038 47.9994 34.6259 46.0032 34.6259 43.3232C34.6259 40.7487 36.7038 38.5413 39.6584 38.5413C42.6116 38.5413 44.7444 40.7487 44.7444 43.3232Z" fill="white"/>
<path d="M122.408 16.3851H112.225V47.9623H122.408V16.3851Z" fill="white"/>
<path d="M160.206 28.2506V47.9652H150.086V30.3292C150.086 26.7219 147.859 24.2763 144.614 24.2763C140.603 24.2763 137.994 26.9048 137.994 32.8354V47.9652H127.811V16.3881H137.994V19.3231C140.412 16.8775 143.787 15.4711 147.795 15.4711C155.243 15.4711 160.206 20.5466 160.206 28.2506Z" fill="white"/>
<path d="M188.932 47.9639L179.684 36.6269L174.847 41.8839V47.9639H164.664V0H174.847V28.6769L186.368 16.3868H198.269L186.494 29.2281L201.459 47.9639H188.932Z" fill="white"/>
<path d="M208.397 37.1175C208.842 39.7461 211.326 40.7249 214.062 40.7249C216.734 40.7249 218.199 39.6237 218.199 38.2792C218.199 37.2386 217.372 36.444 215.017 36.0164L208.526 34.793C202.606 33.7537 199.232 30.6963 199.232 25.8668C199.232 19.5678 204.897 15.4711 212.979 15.4711C220.937 15.4711 226.218 18.9574 227.491 24.2763L218.199 26.0496C217.881 24.1552 215.97 22.4423 212.853 22.4423C210.114 22.4423 209.226 23.7263 209.226 24.8275C209.226 25.6826 209.606 26.539 211.643 26.9666L219.154 28.4335C225.2 29.657 228 33.1432 228 37.6675C228 44.4545 221.89 48 213.488 48C205.98 48 199.551 45.3715 198.468 39.0738L208.397 37.1175Z" fill="white"/>
</svg>
