<svg width="31" height="16" viewBox="0 0 31 16" fill="none" xmlns="http://www.w3.org/2000/svg">
<g clip-path="url(#clip0)">
<path d="M30.4133 8.00136C30.4148 7.69788 30.3525 7.39713 30.2301 7.11644C30.1077 6.83574 29.9275 6.58065 29.7001 6.36586L23.6567 0.67041C23.426 0.453618 23.1516 0.282617 22.8496 0.167513C22.5476 0.0524094 22.2242 -0.00445903 21.8985 0.000272798H8.92849C8.75677 -0.00186332 8.58527 0.0128308 8.41676 0.0441164C8.29027 0.0687756 8.1661 0.103033 8.04547 0.146553C8.0222 0.154748 7.99742 0.158434 7.97438 0.168473C7.6349 0.297625 7.33037 0.496706 7.08309 0.751132L1.12668 6.36463C0.669667 6.80001 0.41333 7.38771 0.41333 8.00013C0.41333 8.61255 0.669667 9.20025 1.12668 9.63563L7.08483 15.2491C7.33124 15.5032 7.63479 15.7022 7.97329 15.8316C7.99655 15.8408 8.02264 15.8447 8.04699 15.8535C8.16709 15.8969 8.29066 15.9311 8.41655 15.9559C8.58534 15.9872 8.75713 16.0019 8.92914 15.9998H21.9017C22.2269 16.004 22.5497 15.9468 22.8511 15.8317C23.1525 15.7166 23.4264 15.5458 23.6567 15.3294L29.7001 9.63645C29.9276 9.42176 30.1077 9.16674 30.2301 8.88611C30.3526 8.60547 30.4148 8.30478 30.4133 8.00136ZM20.9289 13.1049L18.7707 11.5452H9.93021L5.96724 8.00095L9.93021 4.44928H20.9289L24.8667 8.00095L20.9289 11.5452V13.1049Z" fill="#222222"/>
<path d="M19.4051 6.78857H16.8019V9.2116H19.4051V6.78857Z" fill="#222222"/>
<path d="M13.0063 6.78857H10.4353V9.2116H13.0063V6.78857Z" fill="#222222"/>
</g>
<defs>
<clipPath id="clip0">
<rect width="31" height="16" fill="white"/>
</clipPath>
</defs>
</svg>
