<svg width="30" height="30" viewBox="0 0 30 30" fill="none" xmlns="http://www.w3.org/2000/svg">
<path fill-rule="evenodd" clip-rule="evenodd" d="M29.9983 15C29.9983 14.7472 29.9986 14.4946 29.9989 14.2423V14.2421C30.0009 12.4272 30.003 10.6235 29.9008 8.80832C29.7844 6.4067 29.2366 4.27526 27.4804 2.51907C25.7204 0.759129 23.5929 0.21501 21.1914 0.0986822C19.3728 -0.00345098 17.5686 -0.00145137 15.7561 0.000557542C15.5041 0.000836761 15.2521 0.00111616 14.9997 0.00111616C14.7469 0.00111616 14.4943 0.000836638 14.242 0.000557358C12.4271 -0.00145149 10.6234 -0.00344785 8.80815 0.0986822C6.40657 0.21501 4.27518 0.762881 2.51902 2.51907C0.759116 4.27901 0.215007 6.4067 0.0986805 8.80832C-0.00345146 10.6269 -0.00145199 12.4311 0.000558006 14.2437C0.000837006 14.4956 0.00111599 14.7477 0.00111599 15C0.00111599 15.2523 0.000837006 15.5045 0.000558006 15.7563C-0.00145199 17.5697 -0.00345295 19.3763 0.0986805 21.1917C0.215007 23.5934 0.762866 25.7247 2.51902 27.4809C4.27893 29.2409 6.40657 29.7851 8.80815 29.9013C10.6267 30.0035 12.4308 30.0015 14.2432 29.9994H14.2434C14.4954 29.9991 14.7474 29.999 14.9997 29.999C15.2526 29.999 15.5051 29.9991 15.7575 29.9994H15.7576C17.5725 30.0015 19.3761 30.0035 21.1914 29.9013C23.5929 29.7851 25.7242 29.2371 27.4804 27.4809C29.2404 25.721 29.7844 23.5934 29.9008 21.1917C30.0044 19.4063 30.0018 17.6321 29.9992 15.8472C29.9988 15.5651 29.9983 15.2828 29.9983 15ZM21.2101 6.99218C21.2101 5.99775 22.0131 5.19471 23.0076 5.19471C23.4844 5.19411 23.9419 5.38329 24.2791 5.72051C24.6163 6.05774 24.8056 6.51527 24.805 6.99218C24.805 7.99034 24.0019 8.78963 23.0076 8.78963C22.0131 8.78963 21.2101 7.98659 21.2101 6.99218ZM14.9959 7.30335C10.7369 7.30335 7.29963 10.7407 7.29963 14.9998C7.29963 19.259 10.7369 22.6962 14.9959 22.6962C19.255 22.6962 22.6923 19.259 22.6923 14.9998C22.6923 10.7407 19.255 7.30335 14.9959 7.30335ZM14.996 20.0022C12.2417 20.0022 9.99397 17.7545 9.99397 15C9.99397 12.2457 12.2417 9.99792 14.996 9.99792C17.7504 9.99792 19.9981 12.2457 19.9981 15C19.9981 17.7545 17.7504 20.0022 14.996 20.0022ZM25.5628 25.5674C26.092 25.0421 26.4222 24.5316 26.6961 23.8487C27.3706 22.1511 27.3346 18.4469 27.3112 16.0515C27.3075 15.6617 27.304 15.3065 27.304 15.0002C27.304 14.6931 27.3075 14.3366 27.3114 13.9452C27.3346 11.5489 27.3708 7.84469 26.6998 6.14798C26.4259 5.46501 26.0958 4.95843 25.5666 4.42932C25.0413 3.90021 24.5309 3.56999 23.848 3.29606C22.1514 2.62511 18.4471 2.66123 16.0508 2.6846C15.6595 2.68842 15.3031 2.69189 14.9959 2.69189C14.6887 2.69189 14.3323 2.68842 13.9409 2.6846C11.5447 2.66123 7.84051 2.62511 6.14383 3.29606C5.46088 3.56999 4.9543 3.90396 4.42521 4.42932C3.89611 4.95467 3.56589 5.46501 3.29196 6.14798C2.62102 7.84469 2.65716 11.5489 2.68053 13.9452C2.68434 14.3366 2.68782 14.6931 2.68782 15.0002C2.68782 15.3074 2.68434 15.6639 2.68051 16.0551C2.65716 18.4508 2.62104 22.1526 3.29196 23.8524C3.56589 24.5354 3.89611 25.0421 4.42521 25.5711C4.95055 26.1002 5.46088 26.4305 6.14383 26.7044C7.84051 27.3753 11.5447 27.3392 13.9409 27.3158C14.3323 27.312 14.6887 27.3086 14.9959 27.3086C15.3021 27.3086 15.6573 27.312 16.0471 27.3158C18.4424 27.3392 22.1467 27.3752 23.8443 26.7006C24.5272 26.4267 25.0337 26.0964 25.5628 25.5674Z" fill="white"/>
</svg>
