<svg width="60" height="60" viewBox="0 0 60 60" fill="none" xmlns="http://www.w3.org/2000/svg">
<g clip-path="url(#clip0)">
<path d="M26.3806 12.749L20.8123 11.2362C20.2037 11.0708 19.5209 11.2078 19.0305 11.5936C18.6575 11.8868 18.4253 12.3022 18.3748 12.7558L17.758 15.09C17.5762 15.517 17.5747 16.0042 17.7587 16.4545C17.8192 16.6028 17.8984 16.7432 17.9927 16.8732C17.4033 18.1175 16.7313 19.6521 16.0259 21.3594C16.0251 21.3614 16.0243 21.3633 16.0234 21.3651C15.4073 22.8567 14.766 24.479 14.1326 26.1542C11.9733 26.7481 9.21984 29.3105 8.41874 32.341L3.11839 52.3975C2.60833 54.328 3.86089 56.3514 5.9105 56.9082L11.3367 58.3824C11.3367 58.3824 11.3369 58.3824 11.3369 58.3825L16.7629 59.8566C17.1159 59.9525 17.4745 60 17.8296 60C18.4481 60 19.0563 59.8559 19.6064 59.5725C20.5139 59.105 21.1528 58.3212 21.4054 57.3657L22.1345 54.6067C22.1346 54.6064 22.1348 54.6059 22.1348 54.6056C22.1349 54.6052 22.1349 54.6049 22.1351 54.6045L26.7059 37.3092C27.5068 34.2787 26.3857 30.6638 24.8087 29.0547C25.2059 26.5182 25.5363 24.0666 25.7696 21.9494C25.7703 21.9433 25.7711 21.9372 25.7717 21.931C25.8885 20.8701 25.9806 19.8943 26.0447 19.0336C26.5451 18.785 26.942 18.3286 27.0973 17.7414L27.7714 15.191C28.0517 14.129 27.4278 13.0335 26.3806 12.749ZM19.1725 56.7588C19.0919 57.0633 18.8742 57.3206 18.5591 57.4829C18.2025 57.6665 17.777 57.7055 17.3611 57.5925L11.9352 56.1186C11.9351 56.1186 11.9351 56.1185 11.935 56.1185L6.50875 54.6442C5.70419 54.4257 5.17413 53.6745 5.3512 53.004L5.78151 51.3757L19.6028 55.1306L19.1725 56.7588ZM20.2011 52.8667L6.37976 49.1118L10.3527 34.0795L24.1739 37.8344L20.2011 52.8667ZM24.6508 35.5375L11.072 31.8484C12.0742 29.8426 14.108 28.3911 15.0067 28.3681C15.476 28.3562 15.8918 28.0573 16.0583 27.6121C16.659 26.0062 17.2695 24.4422 17.8604 22.9898H23.3223C23.1318 24.5633 22.895 26.2835 22.6228 28.0604L22.3402 27.9836C21.7234 27.816 21.0899 28.1871 20.9247 28.8123C20.7595 29.4374 21.1253 30.08 21.742 30.2474L23.0687 30.6079C23.8217 31.2181 24.7666 33.3966 24.6508 35.5375ZM24.9348 16.8684C24.9257 16.8686 24.9166 16.8696 24.9075 16.87C24.899 16.8702 24.8906 16.8708 24.8822 16.8714C24.8541 16.8731 24.8263 16.8758 24.7986 16.8796C24.789 16.8809 24.7796 16.882 24.7701 16.8836C24.7425 16.888 24.7152 16.8936 24.688 16.9001C24.6802 16.902 24.6721 16.9034 24.6642 16.9055C24.631 16.9141 24.5983 16.9241 24.5662 16.9357C24.5558 16.9395 24.5457 16.944 24.5353 16.948C24.5137 16.9566 24.4922 16.9653 24.4712 16.9751C24.4581 16.9812 24.4454 16.9877 24.4327 16.9943C24.4146 17.0036 24.3968 17.0132 24.3791 17.0234C24.3667 17.0305 24.3543 17.0379 24.3422 17.0455C24.3238 17.057 24.306 17.0693 24.2883 17.0818C24.2782 17.0891 24.2679 17.096 24.2579 17.1036C24.2345 17.1214 24.2118 17.1402 24.1898 17.1598C24.1863 17.1628 24.1826 17.1655 24.1792 17.1687C24.1532 17.1923 24.1285 17.2173 24.1046 17.2432C24.0996 17.2486 24.0951 17.2543 24.0902 17.2598C24.0721 17.2803 24.0545 17.3014 24.0378 17.3234C24.0309 17.3323 24.0245 17.3415 24.0179 17.3507C24.0041 17.3696 23.991 17.3891 23.9784 17.409C23.9713 17.4202 23.9644 17.4315 23.9577 17.4429C23.9468 17.4614 23.9366 17.4805 23.9267 17.4997C23.92 17.5127 23.9133 17.5256 23.907 17.5389C23.8984 17.5576 23.8905 17.5768 23.8828 17.5961C23.877 17.6102 23.8708 17.6242 23.8657 17.6386C23.8555 17.6669 23.8466 17.696 23.8385 17.7255C23.8289 17.7606 23.8212 17.7963 23.8147 17.8325C23.8133 17.8401 23.8112 17.8478 23.81 17.8554C23.8091 17.8603 23.809 17.8656 23.8082 17.8707C23.8031 17.9061 23.7991 17.9415 23.7971 17.9768C23.7551 18.744 23.682 19.6453 23.5823 20.6462H18.8383C19.4359 19.2539 19.9922 18.0342 20.4715 17.0728C20.4866 17.0423 20.5002 17.0107 20.5128 16.9786C20.5149 16.9728 20.518 16.9672 20.5201 16.9615C20.5225 16.9552 20.5241 16.9485 20.5264 16.9421C20.5391 16.9065 20.5502 16.8707 20.5594 16.8345C20.567 16.8048 20.5737 16.775 20.5788 16.7454C20.5813 16.7309 20.5827 16.7163 20.5846 16.7018C20.5875 16.6802 20.5904 16.6588 20.592 16.6373C20.5932 16.6236 20.5937 16.6099 20.5942 16.5962C20.5953 16.5732 20.5959 16.5504 20.5955 16.5277C20.5953 16.5155 20.595 16.5033 20.5945 16.4912C20.5934 16.4659 20.5913 16.4408 20.5887 16.4159C20.5877 16.4061 20.5867 16.3964 20.5855 16.3867C20.5815 16.3568 20.5763 16.3271 20.5701 16.2977C20.569 16.2928 20.5683 16.288 20.5673 16.2831C20.5593 16.2477 20.5499 16.2128 20.5388 16.1784C20.5381 16.1763 20.5373 16.1743 20.5366 16.1723C20.5265 16.1419 20.5151 16.1118 20.5026 16.0823C20.498 16.0716 20.4929 16.061 20.488 16.0504C20.4787 16.0298 20.4689 16.0096 20.4583 15.9897C20.4517 15.9771 20.4448 15.9648 20.4377 15.9525C20.4276 15.9348 20.4168 15.9175 20.4057 15.9002C20.3977 15.8878 20.3898 15.8754 20.3813 15.8632C20.3686 15.845 20.355 15.8276 20.3412 15.8101C20.3336 15.8004 20.3264 15.7903 20.3183 15.7808C20.2966 15.755 20.2736 15.7302 20.2497 15.7064C20.2424 15.6991 20.2347 15.6926 20.2272 15.6856C20.2084 15.6679 20.1892 15.6506 20.1692 15.6341C20.1607 15.6271 20.1518 15.6203 20.143 15.6135C20.1221 15.5972 20.1006 15.5817 20.0784 15.5668C20.0704 15.5616 20.0626 15.5562 20.0544 15.551C20.0471 15.5463 20.04 15.5411 20.0326 15.5366L20.5474 13.5906L25.4491 14.9222L24.9348 16.8684Z" fill="#91A63C"/>
<path d="M19.0475 27.0895L19.0205 27.0822C18.4039 26.9156 17.7704 27.2872 17.6059 27.9125C17.4413 28.5379 17.8079 29.18 18.4248 29.3468L18.4518 29.3541C18.5516 29.3811 18.6518 29.394 18.7504 29.394C19.2611 29.394 19.7286 29.0479 19.8664 28.5238C20.0309 27.8983 19.6643 27.2563 19.0475 27.0895Z" fill="#91A63C"/>
<path d="M19.0509 41.264C18.4688 40.2418 17.529 39.5108 16.4045 39.2053C16.0349 39.1049 15.6547 39.0539 15.2747 39.0539C13.307 39.0539 11.5769 40.401 11.0674 42.3296C10.7661 43.4696 10.9206 44.6604 11.5027 45.6825C12.0848 46.7046 13.0246 47.4357 14.1489 47.7411C14.5186 47.8415 14.8987 47.8924 15.2787 47.8924C17.2463 47.8924 18.9765 46.5454 19.4861 44.6166C19.7876 43.4768 19.6329 42.286 19.0509 41.264ZM17.2535 44.0102C17.0141 44.9161 16.2021 45.5486 15.2789 45.5486C15.1007 45.5486 14.9219 45.5246 14.7472 45.4771C14.2192 45.3337 13.7779 44.9903 13.5047 44.5105C13.2313 44.0305 13.1587 43.4715 13.3003 42.9361C13.5396 42.0302 14.3515 41.3975 15.2748 41.3975C15.4529 41.3975 15.6317 41.4215 15.8065 41.469C16.3345 41.6124 16.7758 41.9558 17.0491 42.4358C17.3222 42.9158 17.3948 43.4749 17.2535 44.0102Z" fill="#91A63C"/>
<path d="M56.0585 52.3975L50.7581 32.341C49.9571 29.3103 47.2036 26.7479 45.0443 26.1542C44.4109 24.4791 43.7696 22.8566 43.1535 21.3652C43.1527 21.3632 43.1518 21.3613 43.151 21.3593C42.4456 19.652 41.7737 18.1174 41.1841 16.8733C41.2783 16.7433 41.3574 16.6028 41.418 16.4547C41.6021 16.0043 41.6005 15.5171 41.4188 15.09L40.8018 12.7558C40.7513 12.3024 40.5192 11.887 40.1463 11.5937C39.6558 11.2079 38.9731 11.0709 38.3643 11.2363L32.796 12.749C32.2895 12.8867 31.8658 13.2168 31.6029 13.6785C31.34 14.1403 31.2698 14.6775 31.4056 15.191L32.0795 17.7415C32.2348 18.3287 32.6317 18.7852 33.1322 19.0336C33.1962 19.8939 33.2882 20.8691 33.4048 21.9294C33.4055 21.9369 33.4066 21.9444 33.4074 21.9519C33.6406 24.0684 33.9708 26.5189 34.368 29.0546C32.791 30.6636 31.67 34.2787 32.4708 37.3092L37.7713 57.3655C38.0239 58.3211 38.6629 59.1049 39.5704 59.5724C40.1205 59.8558 40.7287 59.9999 41.3472 59.9999C41.7022 59.9999 42.0609 59.9524 42.4137 59.8564L53.2663 56.9081C54.2339 56.6453 55.0587 56.046 55.5887 55.2207C56.1443 54.3557 56.3111 53.3531 56.0585 52.3975ZM34.4166 16.8847C34.3994 16.8819 34.382 16.8796 34.3645 16.8775C34.3446 16.875 34.3248 16.8731 34.3046 16.8717C34.291 16.8708 34.2774 16.8699 34.2635 16.8694C34.2562 16.8692 34.2492 16.8683 34.242 16.8682L33.7278 14.922L38.6295 13.5907L39.1439 15.5367C39.1365 15.5413 39.1295 15.5465 39.1222 15.5512C39.114 15.5564 39.1059 15.5618 39.0978 15.5672C39.0759 15.582 39.0545 15.5974 39.0337 15.6135C39.0248 15.6205 39.0158 15.6273 39.007 15.6345C38.9873 15.6508 38.9684 15.6678 38.9499 15.6852C38.9422 15.6925 38.9342 15.6994 38.9266 15.7068C38.9029 15.7305 38.8801 15.7552 38.8584 15.7807C38.85 15.7907 38.8424 15.8013 38.8343 15.8117C38.821 15.8285 38.8078 15.8455 38.7955 15.863C38.7867 15.8754 38.7786 15.8882 38.7703 15.9011C38.7594 15.9178 38.7489 15.9347 38.7389 15.9521C38.7317 15.9646 38.7246 15.9774 38.7178 15.9903C38.7074 16.0098 38.6979 16.0296 38.6887 16.0497C38.6836 16.0607 38.6783 16.0716 38.6736 16.0827C38.6615 16.1115 38.6504 16.141 38.6405 16.1707C38.6395 16.1734 38.6384 16.1761 38.6376 16.1788C38.6265 16.213 38.6171 16.2478 38.6091 16.283C38.608 16.2884 38.6072 16.2938 38.6061 16.2992C38.6 16.328 38.5948 16.3572 38.5909 16.3866C38.5896 16.3965 38.5888 16.4066 38.5876 16.4166C38.585 16.4413 38.583 16.4662 38.5819 16.4912C38.5813 16.5034 38.5809 16.5157 38.5807 16.528C38.5805 16.5506 38.5811 16.5733 38.5821 16.5961C38.5827 16.6101 38.5832 16.6238 38.5842 16.6377C38.5859 16.6592 38.5888 16.6805 38.5917 16.7019C38.5937 16.7165 38.595 16.7311 38.5977 16.7455C38.6031 16.7767 38.6098 16.8078 38.6179 16.8388C38.6262 16.8714 38.6366 16.9037 38.648 16.9358C38.651 16.9444 38.6533 16.9534 38.6564 16.962C38.6578 16.9656 38.6596 16.9691 38.661 16.9726C38.6744 17.0073 38.6891 17.0412 38.7055 17.0739C39.1849 18.0352 39.7409 19.2544 40.3384 20.6463H35.5945C35.4948 19.6453 35.4216 18.744 35.3797 17.9769C35.3777 17.9414 35.3737 17.9057 35.3685 17.8699C35.3678 17.8651 35.3675 17.8603 35.3668 17.8556C35.3656 17.8479 35.3635 17.8402 35.362 17.8324C35.3559 17.798 35.3488 17.7638 35.3398 17.7304C35.3314 17.699 35.3218 17.6683 35.3109 17.6381C35.3062 17.6248 35.3004 17.6119 35.2951 17.5986C35.2869 17.5781 35.2784 17.5576 35.2692 17.5378C35.2634 17.5255 35.257 17.5135 35.2508 17.5013C35.2404 17.481 35.2296 17.461 35.2183 17.4414C35.212 17.4306 35.2055 17.4201 35.1989 17.4095C35.186 17.389 35.1723 17.369 35.1581 17.3494C35.1516 17.3405 35.1455 17.3315 35.1388 17.3228C35.1224 17.3013 35.1052 17.2807 35.0875 17.2606C35.0819 17.2544 35.0768 17.2479 35.0713 17.2418C35.0481 17.2166 35.0239 17.1924 34.9987 17.1694C34.99 17.1614 34.9807 17.1543 34.9718 17.1465C34.9554 17.1325 34.9391 17.1185 34.9219 17.1055C34.9075 17.0944 34.8925 17.0842 34.8776 17.0738C34.8654 17.0654 34.8534 17.0571 34.8411 17.0493C34.8237 17.0381 34.8059 17.0275 34.7879 17.0173C34.778 17.0117 34.7679 17.0064 34.7578 17.001C34.7376 16.9903 34.7173 16.9799 34.6965 16.9704C34.6901 16.9676 34.6838 16.9651 34.6774 16.9623C34.6075 16.9321 34.5343 16.9089 34.4584 16.8932C34.4446 16.8903 34.4307 16.8872 34.4166 16.8847ZM36.1085 30.6079L37.4352 30.2476C38.0518 30.0801 38.4177 29.4375 38.2525 28.8124C38.0872 28.1873 37.4532 27.8161 36.8369 27.9838L36.5543 28.0605C36.2822 26.2835 36.0454 24.5632 35.8548 22.99H41.3169C41.9077 24.4424 42.5183 26.0064 43.1189 27.6123C43.2855 28.0574 43.7011 28.3562 44.1706 28.3681C45.0691 28.3911 47.1028 29.8426 48.105 31.8486L34.5262 35.5376C34.4104 33.3965 35.3554 31.218 36.1085 30.6079ZM38.9758 52.8669L35.003 37.8344L48.8243 34.0795L52.797 49.112L38.9758 52.8669ZM53.6516 53.942C53.4333 54.2818 53.0841 54.5313 52.6683 54.6443L41.8157 57.5926C41.3997 57.7056 40.9745 57.6667 40.6178 57.4829C40.3028 57.3206 40.085 57.0635 40.0044 56.7588L39.5741 55.1306L53.3954 51.3757L53.8257 53.004C53.9061 53.3087 53.8444 53.6419 53.6516 53.942Z" fill="#91A63C"/>
<path d="M41.5707 27.9114C41.4055 27.2863 40.7721 26.9149 40.1553 27.0825L40.1283 27.0899C39.5117 27.2574 39.1458 27.8999 39.311 28.525C39.4492 29.0487 39.9161 29.394 40.4267 29.394C40.5255 29.394 40.6263 29.381 40.7264 29.3538L40.7533 29.3465C41.3699 29.179 41.7359 28.5365 41.5707 27.9114Z" fill="#91A63C"/>
<path d="M48.1095 42.3296C47.5999 40.4008 45.8696 39.0537 43.9021 39.0537C43.522 39.0537 43.1419 39.1047 42.7723 39.2051C41.6478 39.5105 40.7081 40.2416 40.1259 41.2639C39.5439 42.286 39.3893 43.4767 39.6905 44.6168C40.2002 46.5452 41.9305 47.8923 43.8979 47.8924C43.898 47.8924 43.898 47.8924 43.8981 47.8924C44.2781 47.8924 44.6582 47.8415 45.0278 47.7411C46.1522 47.4358 47.092 46.7046 47.6741 45.6825C48.2562 44.6603 48.4108 43.4696 48.1095 42.3296ZM45.6723 44.5105C45.399 44.9905 44.9577 45.3338 44.4298 45.4772C44.2552 45.5247 44.0763 45.5487 43.8983 45.5487C43.8983 45.5487 43.8983 45.5487 43.8981 45.5487C42.975 45.5487 42.1628 44.916 41.9234 44.0103C41.782 43.4749 41.8545 42.9158 42.1278 42.4358C42.4011 41.9558 42.8424 41.6126 43.3704 41.4691C43.545 41.4216 43.724 41.3976 43.9021 41.3976C44.8252 41.3976 45.6373 42.0303 45.8767 42.9362C46.0181 43.4714 45.9456 44.0305 45.6723 44.5105Z" fill="#91A63C"/>
<path d="M29.5885 0C28.9501 0 28.4327 0.524646 28.4327 1.17187V4.30826C28.4327 4.95549 28.9501 5.48013 29.5885 5.48013C30.2267 5.48013 30.7443 4.95549 30.7443 4.30826V1.17187C30.7443 0.524646 30.2269 0 29.5885 0Z" fill="#91A63C"/>
<path d="M25.7229 5.88195L24.1515 3.16579C23.8286 2.60751 23.1203 2.42036 22.5698 2.7479C22.0191 3.07532 21.8347 3.79333 22.1576 4.35161L23.729 7.06777C23.9443 7.43972 24.3304 7.64691 24.7271 7.64691C24.9258 7.64691 25.1271 7.595 25.3108 7.48566C25.8614 7.15812 26.0459 6.44012 25.7229 5.88195Z" fill="#91A63C"/>
<path d="M36.6074 2.74794C36.0566 2.4204 35.3484 2.60766 35.0255 3.16583L33.454 5.88199C33.1311 6.44027 33.3156 7.15827 33.8662 7.48569C34.05 7.59503 34.2512 7.64694 34.4499 7.64694C34.8466 7.64694 35.2327 7.43976 35.4481 7.0678L37.0195 4.35164C37.3425 3.79336 37.1579 3.07536 36.6074 2.74794Z" fill="#91A63C"/>
</g>
<defs>
<clipPath id="clip0">
<rect width="59.1781" height="60" fill="white"/>
</clipPath>
</defs>
</svg>
